<?xml version="1.0" encoding="utf-8"?>
<!-- Generator: Adobe Illustrator 19.2.1, SVG Export Plug-In . SVG Version: 6.00 Build 0)  -->
<svg version="1.1" id="Layer_1" xmlns="http://www.w3.org/2000/svg" xmlns:xlink="http://www.w3.org/1999/xlink" x="0px" y="0px"
	 viewBox="0 0 246 217" style="enable-background:new 0 0 246 217;" xml:space="preserve">
<style type="text/css">
	.st0{fill:#FFFFFF;}
</style>
<g transform="translate(-22.299804,440.877088) scale(0.100000,-0.100000)">
	<path class="st0" d="M757.9,4189.5c-131.6-47.8-221.3-121.6-283.1-233.2c-49.8-89.7-57.8-129.6-57.8-249.2
		c0-135.5,6-155.5,123.6-390.7c73.8-147.5,123.6-273.1,123.6-311v-63.8h247.2h247.2l12,85.7c8,47.8,49.8,149.5,95.7,225.2
		c147.5,251.2,175.4,324.9,175.4,474.4c0,163.5-45.8,277.1-151.5,368.8C1168.6,4205.4,921.4,4247.3,757.9,4189.5z M1132.7,4079.8
		c153.5-69.8,247.2-241.2,221.3-406.6c-12-77.7-95.7-257.1-181.4-392.7c-25.9-39.9-59.8-111.6-75.7-159.5
		c-15.9-49.8-41.9-87.7-61.8-91.7c-25.9-4-31.9,15.9-31.9,103.7c0,89.7,14,133.6,79.7,251.2c61.8,107.6,79.7,159.5,75.7,213.3
		c-6,65.8-12,71.8-75.7,75.7c-247.2,15.9-352.8,15.9-382.7,2c-59.8-29.9-43.9-137.5,43.9-293c65.8-115.6,79.7-159.5,79.7-247.2
		c0-129.6-45.8-147.5-81.7-35.9c-14,39.9-67.8,159.5-121.6,265.1c-121.6,239.2-143.5,376.7-79.7,518.3
		c41.9,95.7,143.5,187.4,237.2,215.3C877.5,4127.7,1049,4119.7,1132.7,4079.8z M736,3607.4c-19.9-49.8,6-107.6,47.8-107.6
		c19.9,0,43.9,8,49.8,19.9c8,12,25.9,10,49.8-4c27.9-17.9,43.9-17.9,65.8,2c19.9,15.9,33.9,17.9,43.9,2c19.9-29.9,83.7-23.9,97.7,12
		c6,15.9,2,49.8-10,71.8c-17.9,31.9-15.9,37.9,6,31.9c51.8-17.9,37.9-95.7-41.9-233.2c-71.8-119.6-81.7-155.5-81.7-257.1
		c0-109.6-4-117.6-43.9-115.6c-41.9,2-47.8,14-55.8,131.6c-10,101.7-27.9,155.5-85.7,253.2c-71.8,119.6-95.7,225.2-51.8,225.2
		C738,3639.3,742,3625.3,736,3607.4z M989.2,3599.4c-6-21.9-14-39.9-15.9-39.9c-2,0-10,17.9-15.9,39.9c-6,23.9,0,39.9,15.9,39.9
		C989.2,3639.3,995.1,3623.4,989.2,3599.4z"/>
	<path class="st0" d="M668.2,2836c-47.8-55.8,6-71.8,243.2-75.7c245.2-2,299,14,251.2,71.8C1128.7,2871.9,700.1,2875.9,668.2,2836z"
		/>
	<path class="st0" d="M690.2,2668.5c-14-4-25.9-25.9-25.9-47.8c0-35.9,15.9-37.9,249.2-37.9c231.2,0,249.2,2,249.2,37.9
		c0,19.9-14,43.9-31.9,49.8C1092.8,2684.5,726,2684.5,690.2,2668.5z"/>
	<path class="st0" d="M763.9,2453.3c83.7-89.7,235.2-81.7,316.9,17.9c23.9,27.9,6,31.9-169.4,31.9H718.1L763.9,2453.3z"/>
	<path class="st0" d="M1925.8,3767.2c-106.8-98.7-129.5-157-140.8-365.8c-8.1-121.4-19.4-195.9-38.8-231.5
		c-34-66.4-48.6-61.5-22.7,6.5c25.9,71.2,4.9,153.8-64.7,241.2c-46.9,61.5-61.5,71.2-64.7,46.9c-3.2-16.2-45.3-110.1-93.9-208.8
		c-131.1-265.4-144.1-399.8-55-576.2c37.2-71.2,55-84.2,32.4-21c-29.1,76.1-19.4,231.5,19.4,299.4c61.5,110.1,100.4,92.3,102-45.3
		c0-38.8,6.5-69.6,14.6-69.6s69.6,56.7,137.6,126.3c118.2,119.8,173.2,208.8,207.2,338.3l12.9,53.4l76.1-114.9
		c113.3-168.3,129.5-265.4,69.6-406.3c-6.5-16.2-4.9-29.1,3.2-29.1c37.2,0,194.2,110.1,223.4,157c17.8,29.1,35.6,51.8,42.1,53.4
		c17.8,0,63.1-157,63.1-226.6c0-42.1-14.6-102-32.4-137.6l-34-64.7l43.7,48.6c113.3,129.5,129.5,271.9,61.5,503.4
		c-24.3,79.3-51.8,176.4-63.1,215.3l-17.8,69.6l-43.7-51.8c-24.3-27.5-43.7-63.1-43.7-77.7c0-46.9-30.8-140.8-56.7-173.2
		c-22.7-30.8-22.7-29.1-8.1,12.9c25.9,71.2,17.8,207.2-14.6,280c-16.2,37.2-68,119.8-114.9,184.5c-46.9,63.1-95.5,142.4-105.2,173.2
		l-19.4,58.3L1925.8,3767.2z"/>
	<path class="st0" d="M1618.3,2650.4c-30.8-9.7-43.7-37.2-43.7-93.9v-53.4h356.1h356.1v53.4c0,27.5-6.5,59.9-12.9,71.2
		c-8.1,14.6-102,21-323.7,24.3C1778.6,2655.3,1629.6,2653.6,1618.3,2650.4z"/>
</g>
</svg>
