<svg id="Layer_1" data-name="Layer 1" xmlns="http://www.w3.org/2000/svg" viewBox="0 0 385.22 68.32"><defs><style>.cls-1{fill:#fff;fill-rule:evenodd;}</style></defs><title>logo_suntime</title><path class="cls-1" d="M212.33,35.91h17.21a24.81,24.81,0,0,1,5.9.5,8.56,8.56,0,0,1,3.67,2.09c2.3,2,3.46,5.33,3.46,9.86v13h26.78v6.91H233.64v-21a4.81,4.81,0,0,0-1.08-3.53,5.16,5.16,0,0,0-3.53-1h-7.78V68.31H183.38a24.55,24.55,0,0,1-5.9-.58,8.41,8.41,0,0,1-3.67-2c-2.23-2.09-3.38-5.4-3.38-9.86v-13h-26.5a16.47,16.47,0,0,0-3.46.22c-1,.36-1.51,1.22-1.51,2.66a3,3,0,0,0,1.44,2.59c0.5,0.36,2,.5,4.32.5H150c3.31,0,6,.72,7.92,2.23a8.27,8.27,0,0,1,3.31,7.06,11.85,11.85,0,0,1-2,6.48,7.2,7.2,0,0,1-3.6,3,23,23,0,0,1-7,.72H133.2a3.5,3.5,0,0,1-3.46-3.46,3.46,3.46,0,0,1,3.46-3.46h5.47c2,0,10.73-.07,11.45-0.14a2.31,2.31,0,0,0,2.38-2.66A2.81,2.81,0,0,0,151,55.86a10.94,10.94,0,0,0-4-.43h-5.4a26.87,26.87,0,0,1-4.82-.36,9.75,9.75,0,0,1-3.17-1.44,8.52,8.52,0,0,1-2.81-3.53,10.7,10.7,0,0,1-1.08-4.75,9.32,9.32,0,0,1,3.53-7.78c1.44-1.15,3.89-1.66,7.42-1.66h38.66V56.72a5.23,5.23,0,0,0,1.08,3.46,4.34,4.34,0,0,0,3.17,1.22H192V35.91H201V61.4h11.38V35.91Z" transform="translate(-11.29 -12.11)"/><path class="cls-1" d="M393,43V42.46a2.94,2.94,0,0,0,1.94-.94,2.87,2.87,0,0,0,.94-2.16h0a3.16,3.16,0,0,0-.94-2.23A3.3,3.3,0,0,0,393,36.2V35.62a3.7,3.7,0,0,1,3.46,3.74h0A3.42,3.42,0,0,1,395.42,42,3.21,3.21,0,0,1,393,43h0Zm0-3a1,1,0,0,0,.22.36l0.5,0.79h0.86l-0.43-.72a1.32,1.32,0,0,0-.43-0.58,0.72,0.72,0,0,0-.36-0.29,1.69,1.69,0,0,0,.72-0.36,1,1,0,0,0,.22-0.65A0.78,0.78,0,0,0,394.2,38a0.56,0.56,0,0,0-.43-0.36A1.81,1.81,0,0,0,393,37.5v0.65h0.22a0.38,0.38,0,0,1,.22.14,0.37,0.37,0,0,1,.14.29,1.63,1.63,0,0,1-.07.29,0.38,0.38,0,0,1-.22.14,1.63,1.63,0,0,1-.29.07V40Zm-106.63-4.1h4.39V61.4h11.52V35.91h32.76a26.89,26.89,0,0,1,6.84.65,7.62,7.62,0,0,1,3.89,2.3c1.94,2.16,3,5,3,8.78V61.4H360a18.7,18.7,0,0,1-2.38-9.72,17.25,17.25,0,0,1,3.1-10.3,13,13,0,0,1,5.11-4.25,20.56,20.56,0,0,1,7.92-1.22h9.07a3.46,3.46,0,0,1,3.46,3.46,3.5,3.5,0,0,1-3.46,3.46H374.4c-2.45,0-4.18.36-5.11,1.22s-1.58,2.38-1.8,4.54h15.34a3.49,3.49,0,0,1,0,7H367.49a5.83,5.83,0,0,0,2,4.46c1.22,0.94,3.17,1.37,5.83,1.37h7.49a3.46,3.46,0,0,1,3.46,3.46,3.5,3.5,0,0,1-3.46,3.46h-43V49.09a17.2,17.2,0,0,0-.22-3.31,3.52,3.52,0,0,0-.94-1.66,5.92,5.92,0,0,0-4.18-1.3h-4.75V68.31h-8.93V42.82h-9.58V68.31H286.42V35.91h0ZM393,35.62V36.2h-0.22a3.2,3.2,0,0,0-3.17,3.17h0a2.87,2.87,0,0,0,.94,2.16,3.16,3.16,0,0,0,2.23.94H393V43h-0.22A3.58,3.58,0,0,1,390.17,42a3.7,3.7,0,0,1-1.08-2.59h0a3.75,3.75,0,0,1,1.08-2.66,3.88,3.88,0,0,1,2.66-1.08H393Zm0,1.87h-1.66v3.67h0.72V39.66h0.5l0.22,0.22A0.38,0.38,0,0,1,393,40V39.08h-0.94V38.14H393V37.5h0ZM286.42,33.25V24.32A4.46,4.46,0,0,1,286.42,33.25Zm-21.6-4.54v7.2h6.55a3.41,3.41,0,0,1,3.46,3.46,3.33,3.33,0,0,1-3.46,3.46h-6.55V54.56c0,2.81.29,4.54,0.79,5.26a4.64,4.64,0,0,0,4,1.58H282V35.91h4.46v32.4h-19.8c-3.89,0-6.62-.94-8.28-2.81s-2.45-5-2.45-9.36V42.82h-3.74a3.46,3.46,0,1,1,.07-6.91h3.67v-7.2a4.46,4.46,0,1,1,8.93,0h0Zm21.6-4.39h0a4.46,4.46,0,1,0,0,8.93h0V24.32Z" transform="translate(-11.29 -12.11)"/><path class="cls-1" d="M105.12,21.37a0.91,0.91,0,0,0-.43-0.07,0.81,0.81,0,0,0-.72.94h0l1,5.69L62.57,35.41a16.72,16.72,0,0,0-4.1,1.08q-1.73,1-1.3,3.46a3.64,3.64,0,0,0,2.3,2.88c0.72,0.29,2.52.14,5.33-.36l6.41-1.08c4-.72,7.34-0.43,10,0.94q4.43,2.16,5.4,7.78a14,14,0,0,1-.94,8.21,8.63,8.63,0,0,1-3.74,4.46,30.27,30.27,0,0,1-8.21,2.38L43.2,70.47c-0.43.07-.5,0.43-0.29,0.65a0.61,0.61,0,0,0,.22.22,34.18,34.18,0,0,0,56.88-31c-0.14-1.08-.43-2.09-0.65-3.1l7.06-1.22,1,5.69h0a0.76,0.76,0,0,0,.94.65,0.55,0.55,0,0,0,.36-0.14h0c0.07,0,.07-0.07.14-0.07L121.18,30a1.08,1.08,0,0,0,.29-0.79,1,1,0,0,0-.58-0.65l-15.77-7.2h0Z" transform="translate(-11.29 -12.11)"/><path class="cls-1" d="M60.41,12.66a34,34,0,0,1,28.87,8.28l0.36,0.36a0.44,0.44,0,0,1-.29.79L57.17,27.78c-4.25.72-7.06,1.94-8.5,3.6A11.69,11.69,0,0,0,46,41.46,13.56,13.56,0,0,0,48.31,47a11.44,11.44,0,0,0,4.1,3.6,10.88,10.88,0,0,0,4.18,1.08,29.48,29.48,0,0,0,5.9-.58L69,50a13.38,13.38,0,0,1,4.82-.29,3.34,3.34,0,0,1,2.45,3c0.36,1.94-.36,3.38-2.3,3.74L60.19,58.88,36.58,63.06h0l-8.86,1.58,1,5.69h0a0.81,0.81,0,0,1-.65.94H27.72a0.25,0.25,0,0,1-.14-0.07L11.81,64a1.15,1.15,0,0,1-.5-0.65,0.86,0.86,0,0,1,.29-0.79L23.9,50.31h0a1,1,0,0,1,.43-0.14,0.81,0.81,0,0,1,.94.65h0l1,5.69,7.13-1.22c-0.29-1-.5-2-0.72-3.1A34.14,34.14,0,0,1,60.41,12.66Z" transform="translate(-11.29 -12.11)"/></svg>