<?xml version="1.0" encoding="utf-8"?>
<!-- Generator: Adobe Illustrator 19.2.1, SVG Export Plug-In . SVG Version: 6.00 Build 0)  -->
<svg version="1.1" id="Layer_1" xmlns="http://www.w3.org/2000/svg" xmlns:xlink="http://www.w3.org/1999/xlink" x="0px" y="0px"
	 viewBox="0 0 350 106" style="enable-background:new 0 0 350 106;" xml:space="preserve">
<style type="text/css">
	.st0{fill:#FFFFFF;}
</style>
<g>
	<path class="st0" d="M145,81.8c-1.4-0.2-4-0.3-7.6-0.3c-0.4,0-0.9,0-1.3,0c-3,0-5.2,0.1-6.4,0.3c-2.1,0.3-3.5,1.2-4.1,2.9
		c-0.5,1.1-0.9,3-1.3,5.6c-0.4,2.7-0.5,4.7-0.4,5.8c0.3,1.6,1.4,2.6,3.3,2.8c1.4,0.2,4,0.3,7.7,0.3c0.4,0,0.8,0,1.2,0
		c3.1,0,5.3-0.1,6.5-0.3c2.1-0.2,3.5-1.2,4.1-2.8c0.5-1.2,0.9-3.1,1.3-5.8c0.4-2.7,0.5-4.6,0.4-5.7C148,83,146.9,82.1,145,81.8z
		 M142.6,90.8c-0.1,1-0.3,1.8-0.5,2.2c-0.1,0.4-0.4,0.8-0.7,1c-0.4,0.3-0.9,0.4-1.7,0.6c-0.6,0-1.9,0.1-3.7,0.1h-0.6
		c-2.2,0-3.7-0.1-4.5-0.1c-1-0.1-1.6-0.6-1.7-1.5c-0.1-0.4,0-1.2,0.1-2.3c0.3-1.7,0.5-2.9,0.8-3.5s0.8-0.9,1.4-1.2
		c0.6-0.1,2-0.2,4.4-0.2h0.6c2.4,0,4,0.1,4.6,0.1c0.6,0.1,1.1,0.4,1.3,0.7c0.1,0.3,0.3,0.7,0.3,1.3
		C142.9,88.7,142.7,89.6,142.6,90.8z"/>
	<path class="st0" d="M325.5,88.3h-42.4c-1.2,0-2.1,0.9-2.1,2c0,1.2,0.9,2,2.1,2h42.4c1.2,0,2.1-0.9,2.1-2
		C327.6,89.2,326.7,88.3,325.5,88.3z"/>
	<path class="st0" d="M264.1,82.4c-0.5-0.4-1-0.5-1.6-0.6s-2.4-0.1-5.3-0.1h-3h-9.6L242,99h5.3l0.6-4.4h6.3h1.2c1.1,0,1.8,0,2.2,0.1
		c0.3,0.1,0.6,0.2,0.7,0.4c0.1,0.2,0.3,0.6,0.3,0.9c0,0.4-0.1,1.2-0.2,2.1l-0.1,0.9h5.1l0.2-1.6c0.2-1.5,0.4-2.5,0.4-3
		c-0.1-0.5-0.1-0.9-0.4-1.2c-0.4-0.5-1.2-0.9-2.3-0.9c1-0.1,1.7-0.4,2.2-0.8s0.9-0.8,1.1-1.4s0.4-1.5,0.6-2.8
		c0.2-1.5,0.2-2.6,0.1-3.2C265.1,83.4,264.7,82.8,264.1,82.4z M259.7,88.1c-0.1,0.6-0.2,1-0.3,1.3c-0.1,0.3-0.4,0.4-0.6,0.6
		c-0.2,0.1-0.4,0.2-0.6,0.2c-0.3,0.1-1.1,0.1-2.4,0.1h-1.7h-5.6l0.6-4.2h5h2.3c1.2,0,1.9,0.1,2.2,0.1c0.3,0,0.4,0.1,0.6,0.1
		c0.2,0.1,0.4,0.3,0.4,0.6S259.8,87.5,259.7,88.1z"/>
	<polygon class="st0" points="172.7,81.8 167.1,81.8 164.8,99 182.4,99 183.1,94.6 170.9,94.6 	"/>
	<path class="st0" d="M105.7,41.1c0.3-1.2,0.4-2.8,0.4-5.2c0-2.8-0.2-4.8-0.6-6.1c-0.5-1.4-1.3-2.4-2.6-3.1c-1-0.6-2.1-1-3.2-1.1
		c-1.1-0.1-4.5-0.2-10-0.2H86H67.6c-1.4,0-1.7,0.8-1.7,1.6v30c0,0.4,0.4,0.8,0.8,0.8H75c0.6,0,0.8-0.5,0.8-1v-7.2H86h3.6
		c2,0,3.4,0.1,4,0.1c0.6,0.1,1.2,0.4,1.5,0.7c0.4,0.4,0.6,1,0.8,1.8c0.1,0.7,0.1,2,0.1,3.8v0.6c0.1,0.8,0.3,1.1,0.9,1.1h8.1
		c0.5,0.1,0.8-0.5,0.8-0.9v-2.1c0-2.8-0.1-4.6-0.2-5.5s-0.4-1.7-1-2.2c-0.9-1.1-2.4-1.7-4.4-1.8c1.7-0.3,3-0.8,3.9-1.4
		C104.8,43,105.4,42.2,105.7,41.1z M95.9,39.7c-0.1,0.6-0.4,0.9-0.9,1.2c-0.4,0.2-0.7,0.3-1.2,0.4c-0.4,0.1-1.9,0.1-4.3,0.1H86H75.7
		v-8H86h3.5c2.3,0.1,3.7,0.1,4.1,0.1c0.5,0.1,0.9,0.1,1.3,0.3c0.4,0.3,0.8,0.6,1,1.2c0.2,0.5,0.3,1.3,0.3,2.4S96.2,39.2,95.9,39.7z"
		/>
	<path class="st0" d="M146.8,25.5c-2.2-0.3-5.8-0.4-10.8-0.5c-1.1,0-2.3,0-3.6,0c-7,0-11.8,0.1-14.4,0.5c-3.7,0.5-6,2.3-6.9,5.4
		c-0.6,2.1-0.9,5.5-0.9,10.5c0,5.2,0.4,8.8,0.9,10.9c0.9,3,3.2,4.8,6.9,5.3c2.6,0.4,7.4,0.6,14.4,0.6h0.1c1.3,0,2.4,0,3.5,0
		c5-0.1,8.6-0.3,10.8-0.6c3.7-0.5,6-2.3,6.9-5.3c0.6-2.2,0.9-5.7,0.9-10.8c0-5-0.3-8.6-0.9-10.7C152.9,27.8,150.6,26,146.8,25.5z
		 M144.5,46.7c-0.2,0.9-0.6,1.5-1.2,1.9c-0.6,0.5-1.6,0.8-2.9,0.9c-0.9,0.1-2.4,0.2-4.4,0.2c-1,0-2.2,0-3.5,0h-0.1
		c-4.2,0-7.1-0.1-8.5-0.3c-1.9-0.2-3.2-1.2-3.5-2.8c-0.2-0.9-0.4-2.3-0.4-4.3c0-3.2,0.2-5.4,0.6-6.6c0.4-1.1,1.2-1.8,2.4-2.1
		c1.1-0.3,4.2-0.4,9.4-0.4c1.4,0,2.5,0,3.6,0c2.5,0,4.2,0.1,5,0.3c1.2,0.1,2.1,0.6,2.6,1.3c0.4,0.5,0.7,1.4,0.9,2.4
		c0.1,1.1,0.2,2.8,0.2,5.1C144.8,44.4,144.7,45.8,144.5,46.7z"/>
	<path class="st0" d="M53.2,25.7c-1.3-0.2-4.1-0.3-8.5-0.3H42H24.3c-0.9,0-1.6,0.8-1.7,1.5v29.7c0,0.6,0.4,1.2,1.1,1.2H31
		c1,0,1.4-0.9,1.4-1.4v-6.6h9.5h2.9c3.8,0,6.4-0.1,7.8-0.2c1.9-0.2,3.5-0.6,4.6-1.2c1.2-0.6,2-1.4,2.7-2.4c0.9-1.7,1.4-4.4,1.4-8.4
		c0-4.2-0.6-7.1-1.7-8.7C58.5,27.1,56.3,26.1,53.2,25.7z M51.2,40.1c-0.2,0.5-0.6,0.9-1.1,1.2c-0.4,0.2-0.9,0.4-1.3,0.4
		c-0.5,0-1.9,0.1-4.2,0.1h-2.7h-9.5v-8.3h9.5h2.7c3,0.1,4.8,0.2,5.2,0.4c0.6,0.2,1,0.6,1.3,1.2c0.2,0.6,0.4,1.4,0.4,2.5
		S51.4,39.5,51.2,40.1z"/>
	<path class="st0" d="M213.1,81.8h-2.5L199,99h6l1.9-3h6.2h5.2l1.1,3h5.9l-6.6-17.2H213.1z M213.1,92.3h-3.8l3.8-5.9l0.4-0.6h1
		l2.4,6.6h-3.8V92.3z"/>
	<path class="st0" d="M331.5,7.2h-77.3h-41h-77H17.8c-6.9,0-12.5,5.6-12.5,12.5v43.7c0,6.8,5.6,12.5,12.5,12.5H136h77h41h77.3
		c6.9,0,12.5-5.6,12.5-12.5V19.7C344,12.8,338.4,7.2,331.5,7.2z M339.2,63.4c0,4.2-3.5,7.7-7.8,7.7h-77.3h-41h-77h-3.6H86H41.9H17.8
		c-4.3,0-7.8-3.5-7.8-7.7V19.7c0-4.3,3.5-7.8,7.8-7.8h24.1H86h46.4h3.6h77h41h77.3c4.3,0,7.8,3.5,7.8,7.8v43.7H339.2z"/>
	<path class="st0" d="M103.3,81.7c-1-0.1-2.8-0.2-5.3-0.2c-3.6,0-6,0.1-7.1,0.2c-1.2,0.2-2.2,0.6-2.8,1.2c-0.9,0.8-1.4,2.2-1.7,4.1
		c-0.3,1.7-0.1,3,0.4,3.7c0.3,0.4,0.8,0.7,1.4,0.9c0.6,0.2,1.6,0.4,2.9,0.4c0.6,0,2,0.1,4.2,0.2c2.1,0.1,3.4,0.1,4.1,0.1
		c0.8,0,1.4,0.1,1.6,0.3c0.3,0.1,0.4,0.5,0.3,1c-0.1,0.7-0.4,1.2-0.8,1.3c-0.3,0.1-0.6,0.1-1.1,0.2c-0.4,0-1.8,0-4,0s-3.4,0-3.8-0.1
		c-0.4,0-0.7-0.1-0.9-0.3c-0.3-0.2-0.4-0.8-0.3-1.6h-5l-0.1,0.8c-0.1,1.2-0.2,2.2,0,2.7c0.1,0.6,0.5,1.1,1.2,1.5
		c0.6,0.3,1.4,0.6,2.7,0.6c1.2,0.1,3.1,0.2,5.7,0.2c3.1,0,5.3,0,6.4-0.1c1.1-0.1,1.9-0.3,2.5-0.6s1.2-0.7,1.6-1.3
		c0.5-0.8,0.9-2,1.2-3.6c0.1-1.2,0.1-2.2,0-2.9c-0.1-0.6-0.6-1.2-1.2-1.5c-0.5-0.4-1.2-0.6-2.1-0.6c-0.9-0.1-2.8-0.2-5.5-0.4
		c-3.3-0.1-5.2-0.1-5.5-0.3c-0.5-0.1-0.6-0.5-0.6-1.1c0.1-0.6,0.4-1,0.9-1.2c0.5-0.1,1.9-0.2,4.1-0.2c1.9,0,3.1,0,3.7,0
		c0.6,0.1,0.9,0.1,1.2,0.3c0.1,0.1,0.3,0.3,0.3,0.4c0.1,0.1,0.1,0.5,0,1h5.1c0-0.4,0.1-0.6,0.1-0.9c0.2-1.5,0.1-2.7-0.4-3.3
		C105.9,82.3,104.8,81.9,103.3,81.7z"/>
	<path class="st0" d="M66.1,88.3H23.7c-1.2,0-2.1,0.9-2.1,2c0,1.2,0.9,2,2.1,2h42.4c1.2,0,2.1-0.9,2.1-2
		C68.2,89.2,67.3,88.3,66.1,88.3z"/>
	<path class="st0" d="M190.3,25.7c-1.3-0.1-4.1-0.3-8.5-0.3h-2.7H161c-0.9,0-1.2,0.6-1.2,1.3v29.9c0,0.6,0.1,1.2,1.2,1.2h7.4
		c0.6,0,1.3-0.1,1.3-1.2v-6.8h9.4h2.8c3.9,0,6.5-0.1,7.9-0.2c1.9-0.2,3.5-0.6,4.6-1.2c1.2-0.5,2-1.4,2.7-2.4
		c0.9-1.7,1.4-4.4,1.4-8.4c0-4.2-0.6-7.1-1.7-8.7C195.7,27.1,193.5,26.1,190.3,25.7z M188.4,40.1c-0.2,0.5-0.6,0.9-1.1,1.2
		c-0.4,0.2-0.9,0.4-1.3,0.4c-0.5,0-1.9,0.1-4.2,0.1h-2.7h-9.4v-8.3h9.4h2.7c3,0.1,4.8,0.2,5.2,0.4c0.6,0.2,1,0.6,1.3,1.2
		c0.2,0.6,0.3,1.4,0.3,2.5S188.5,39.5,188.4,40.1z"/>
	<path class="st0" d="M243.3,25.4h-7.1c-1,0-1.3,0.7-1.3,1.2v13.6c0,0.9,0,2.2-0.1,3.6s-0.2,2.4-0.4,3c-0.1,0.6-0.4,1.1-0.8,1.4
		c-0.6,0.6-1.4,1-2.8,1.2c-1.3,0.2-3.7,0.3-7.1,0.3c-4.2,0-7-0.2-8.4-0.6s-2.2-1.2-2.4-2.5c-0.2-0.9-0.4-3-0.4-6.5V26.6
		c0-0.6-0.3-1.3-1.3-1.3h-7.5c-0.8,0-1.1,0.7-1.1,1.2v13.6c0,3.8,0.1,6.3,0.1,7.3c0.1,1,0.1,2.2,0.4,3.5c0.6,3.4,2.7,5.5,6.1,6.3
		c1,0.2,2.3,0.5,3.6,0.6c0.6,0.1,1.2,0.1,1.9,0.2c2.2,0.1,5.1,0.2,9,0.2c5.3,0,8.9-0.1,11.2-0.4c2.3-0.2,4-0.7,5.3-1.4
		c2.2-1.3,3.5-3.2,3.9-6c0.2-1.6,0.5-5,0.5-10.2V26.6C244.8,26,244.5,25.4,243.3,25.4z"/>
	<path class="st0" d="M282.6,49.4h-21.8V26.6c0-0.6-0.2-1.3-1.5-1.3h-5.2h-2.4c-1.3,0-1.2,1.2-1.2,1.2v29.9c0,1,0.7,1.2,1.1,1.2h2.5
		h28.4c0.8,0,1.2-0.4,1.2-1.2v-5.9C283.8,50.1,283.4,49.4,282.6,49.4z"/>
	<path class="st0" d="M323.5,39.3c-1-0.6-2.4-0.9-4.2-1.2c-1.8-0.2-5.3-0.4-10.5-0.6c-6.2-0.2-9.6-0.4-10.4-0.6
		c-0.9-0.3-1.4-1-1.4-2.1c0-1.2,0.5-1.9,1.4-2.2c0.9-0.3,3.5-0.4,7.7-0.4c3.5,0,5.7,0.1,6.8,0.1c1.1,0.1,1.9,0.2,2.2,0.4
		c0.4,0.2,0.6,0.5,0.7,0.9c0.1,0.1,0.1,0.4,0.1,0.9c0.1,0.5,0.3,0.9,1,0.9h7.6c0.7,0,1.1-0.6,1.1-1.1c0-0.1,0-0.3,0-0.4
		c0-3-0.6-5-1.7-6.3c-1.1-1.2-3.2-2-6.1-2.4c-1.9-0.3-5.3-0.4-10-0.4c-6.7,0-11.2,0.2-13.4,0.5c-2.2,0.4-3.7,1.1-4.8,2.2
		c-1.4,1.5-2.1,4.1-2.1,7.7c0,3.2,0.6,5.6,1.8,7c0.7,0.9,1.7,1.4,3,1.8s3.1,0.6,5.5,0.7c1.2,0,3.8,0.1,7.8,0.3
		c4,0.2,6.6,0.3,7.7,0.3c1.6,0.1,2.7,0.2,3.2,0.5c0.5,0.4,0.8,1,0.8,1.9c0,1.4-0.4,2.2-1.1,2.4c-0.5,0.2-1.2,0.4-2,0.4
		c-0.9,0.1-3.3,0.1-7.5,0.1c-4,0-6.3-0.1-7.1-0.1c-0.7-0.1-1.4-0.3-1.8-0.6c-0.4-0.3-0.7-0.9-0.9-1.7c-0.1-0.7-0.2-1.4-1.5-1.4h-6.9
		c-0.8,0-1.2,0.7-1.2,1.2v0.3c0,2.4,0.2,4.1,0.7,5.2c0.4,1.2,1.3,2.1,2.5,2.8c1.2,0.6,2.9,1.1,5.2,1.3c2.3,0.3,5.9,0.4,10.8,0.4
		c5.8,0,9.8-0.1,11.9-0.3c2-0.2,3.5-0.6,4.6-1.2c1.2-0.5,2-1.3,2.6-2.4c0.8-1.5,1.2-3.7,1.2-6.8c0-2.3-0.2-4.1-0.7-5.3
		C325.5,41,324.7,40,323.5,39.3z"/>
</g>
</svg>
