<svg id="Layer_1" data-name="Layer 1" xmlns="http://www.w3.org/2000/svg" viewBox="0 0 338.69 92.02"><defs><style>.cls-1,.cls-2{fill:#fff;}.cls-2{fill-rule:evenodd;}</style></defs><title>logo_propuls_solar-white</title><path class="cls-1" d="M258.06,10.68h77.33a12.54,12.54,0,0,1,12.53,12.53v43.7a12.52,12.52,0,0,1-12.53,12.46H258.06V10.68h0Zm0,87.41V93.77h1.73a16.55,16.55,0,0,0,2.38-.07,1.16,1.16,0,0,0,.65-0.22,1.47,1.47,0,0,0,.58-0.58,9.18,9.18,0,0,0,.29-1.3,3.81,3.81,0,0,0,0-1.3,0.89,0.89,0,0,0-.43-0.58,1.72,1.72,0,0,0-.65-0.14c-0.29,0-1-.07-2.23-0.07h-2.3V85.27h3c3,0,4.75,0,5.33.07a3.26,3.26,0,0,1,1.58.58,2.31,2.31,0,0,1,1.15,1.66,9.93,9.93,0,0,1-.07,3.24,18.51,18.51,0,0,1-.65,2.81A2.88,2.88,0,0,1,267.35,95a5,5,0,0,1-2.23.79,3.13,3.13,0,0,1,2.3.94,3.06,3.06,0,0,1,.36,1.22c0,0.43-.14,1.44-0.36,3l-0.22,1.58H262.1l0.07-.94a15.55,15.55,0,0,0,.22-2.09,1.8,1.8,0,0,0-.29-0.94,1.69,1.69,0,0,0-.72-0.36,15.24,15.24,0,0,0-2.16-.07h-1.15Zm29-2.23h42.41a2,2,0,0,0,2.09-2h0a2,2,0,0,0-2.09-2H287.08a2,2,0,0,0-2.09,2h0A2,2,0,0,0,287.08,95.86ZM217,10.68h41V79.37H217V10.68h0Zm41,74.59v4.25h-5l-0.58,4.25h5.62v4.32H251.8l-0.58,4.39H246l2.45-17.21h9.65ZM217,99.53V95.78h3.89l-2.45-6.55h-1l-0.43.65V85.27h5.62l6.55,17.21h-5.9l-1.08-3H217ZM140,10.68h77V79.37H140V10.68h0Zm77,74.59v4.61l-3.82,5.9H217v3.74h-6.19l-1.94,3h-6L214.5,85.27H217ZM140,102.7V98.23c1.8,0,3-.07,3.67-0.07a4,4,0,0,0,1.66-.58,2.15,2.15,0,0,0,.72-1,8.61,8.61,0,0,0,.5-2.23c0.14-1.22.29-2.16,0.29-2.74a2.88,2.88,0,0,0-.29-1.3,1.65,1.65,0,0,0-1.3-.72c-0.65-.07-2.16-0.14-4.61-0.14H140V85h1.3a61,61,0,0,1,7.63.29c1.94,0.29,3,1.22,3.31,2.88a25.74,25.74,0,0,1-.36,5.69,23.86,23.86,0,0,1-1.3,5.76,4.59,4.59,0,0,1-4.1,2.81,44.81,44.81,0,0,1-6.48.29h0Zm31.1-17.42h5.54l-1.8,12.82H187l-0.65,4.39H168.71ZM21.76,10.68H140V79.37H21.76A12.52,12.52,0,0,1,9.23,66.91V23.21A12.54,12.54,0,0,1,21.76,10.68h0ZM140,85v4.46a25.22,25.22,0,0,0-4.39.22,2.33,2.33,0,0,0-1.44,1.15,15.42,15.42,0,0,0-.79,3.46,9.71,9.71,0,0,0-.14,2.3,1.65,1.65,0,0,0,1.66,1.51c0.79,0.07,2.3.14,4.54,0.14H140v4.46h-1.15a61.66,61.66,0,0,1-7.7-.29,3.36,3.36,0,0,1-3.31-2.81,27,27,0,0,1,.36-5.83,21.54,21.54,0,0,1,1.3-5.62,4.66,4.66,0,0,1,4.1-2.88A58.41,58.41,0,0,1,140,85h0ZM89.3,96.79h5a1.66,1.66,0,0,0,.29,1.58,1.33,1.33,0,0,0,.94.29c0.43,0.07,1.66.07,3.82,0.07h4q0.65-.11,1.08-0.22a1.48,1.48,0,0,0,.79-1.3,0.89,0.89,0,0,0-.29-1,2.64,2.64,0,0,0-1.58-.29c-0.72,0-2-.07-4.1-0.14s-3.53-.22-4.18-0.22a9.34,9.34,0,0,1-2.88-.36,2.66,2.66,0,0,1-1.44-.94c-0.58-.79-0.72-2-0.43-3.74,0.29-1.94.79-3.31,1.66-4.1a5.08,5.08,0,0,1,2.81-1.22Q96.5,85,101.9,85a44.18,44.18,0,0,1,5.33.22,4.78,4.78,0,0,1,3.1,1.3,5,5,0,0,1,.36,3.31c0,0.22-.07.43-0.07,0.86H105.5a2.21,2.21,0,0,0,0-1,0.76,0.76,0,0,0-.29-0.43,2.89,2.89,0,0,0-1.15-.29h-3.67a21.69,21.69,0,0,0-4.1.22,1.18,1.18,0,0,0-.86,1.15A0.83,0.83,0,0,0,96,91.39a38.48,38.48,0,0,0,5.54.29c2.74,0.14,4.61.22,5.54,0.36a4.21,4.21,0,0,1,2.09.65,2.42,2.42,0,0,1,1.15,1.51,9.44,9.44,0,0,1,0,2.88,9.17,9.17,0,0,1-1.15,3.6,4,4,0,0,1-1.58,1.3,7.23,7.23,0,0,1-2.52.58c-1.15.14-3.31,0.14-6.41,0.14a53.42,53.42,0,0,1-5.69-.22,6.8,6.8,0,0,1-2.66-.65,2.36,2.36,0,0,1-1.15-1.51,6.78,6.78,0,0,1,0-2.74l0.14-.79h0Zm-61.63-.94H70.07a2,2,0,0,0,2.09-2h0a2,2,0,0,0-2.09-2H27.66a2,2,0,0,0-2.09,2h0A2,2,0,0,0,27.66,95.86Z" transform="translate(-9.23 -10.68)"/><path class="cls-1" d="M136.38,74.62h199a7.77,7.77,0,0,0,7.78-7.7V23.21a7.74,7.74,0,0,0-7.78-7.78h-199v13a128.76,128.76,0,0,1,14.4.5q5.62,0.76,6.91,5.4c0.58,2.09.86,5.69,0.86,10.66s-0.29,8.64-.86,10.8c-0.86,3-3.17,4.82-6.91,5.33a123,123,0,0,1-14.33.58h-0.07V74.62h0Zm0-21.31V36.82h0a68.6,68.6,0,0,1,8.64.29,3.47,3.47,0,0,1,2.59,1.3,4.86,4.86,0,0,1,.86,2.45A43.25,43.25,0,0,1,148.7,46a20.27,20.27,0,0,1-.29,4.25,3.3,3.3,0,0,1-1.15,1.94,5.65,5.65,0,0,1-2.88.94c-1.37.14-4,.22-7.92,0.22h-0.07ZM89.94,74.62h46.44V61.73a122.75,122.75,0,0,1-14.4-.58c-3.74-.5-6-2.3-6.91-5.33a46.55,46.55,0,0,1-.94-10.94,43.15,43.15,0,0,1,.94-10.51q1.3-4.64,6.91-5.4a127.91,127.91,0,0,1,14.4-.5h0v-13H89.94V28.9h3.67c5.54,0,8.93.07,10,.22a6.67,6.67,0,0,1,3.17,1.08,5.5,5.5,0,0,1,2.59,3.1,20.88,20.88,0,0,1,.65,6.12,22.6,22.6,0,0,1-.43,5.18,5.42,5.42,0,0,1-1.66,2.66,9,9,0,0,1-3.89,1.44c2,0.14,3.53.72,4.39,1.8a4,4,0,0,1,1,2.23,42.18,42.18,0,0,1,.22,5.47v2.09a0.84,0.84,0,0,1-.79.94h-8.06c-0.58,0-.79-0.29-0.86-1.08V59.5a25.2,25.2,0,0,0-.14-3.82,3.79,3.79,0,0,0-.79-1.8,2.5,2.5,0,0,0-1.51-.72,39,39,0,0,0-4-.14h-3.6v21.6h0Zm46.44-37.8V53.3a73.61,73.61,0,0,1-8.5-.29c-1.94-.22-3.17-1.15-3.53-2.81a19.44,19.44,0,0,1-.36-4.32,25.29,25.29,0,0,1,.58-6.55A3.19,3.19,0,0,1,127,37.25c1.08-.29,4.25-0.43,9.43-0.43h0ZM89.94,45V37h3.53c2.3,0.07,3.67.07,4.1,0.07a5.78,5.78,0,0,1,1.3.29,2.62,2.62,0,0,1,1,1.15,6.59,6.59,0,0,1,.29,2.38,6.59,6.59,0,0,1-.29,2.38A1.94,1.94,0,0,1,99,44.45a3.06,3.06,0,0,1-1.22.36c-0.43.07-1.87,0.07-4.32,0.14H89.94ZM45.88,74.62H89.94V53H79.65v7.2a0.82,0.82,0,0,1-.79,1H70.58a0.92,0.92,0,0,1-.79-0.79v-30a1.48,1.48,0,0,1,1.73-1.58H89.94V15.43H45.88V28.9h2.74a69.6,69.6,0,0,1,8.5.29c3.17,0.43,5.33,1.44,6.48,3.1s1.73,4.54,1.73,8.71-0.5,6.77-1.44,8.42a6.26,6.26,0,0,1-2.66,2.45,13.23,13.23,0,0,1-4.61,1.22c-1.44.14-4,.22-7.85,0.22H45.88V74.62h0ZM89.94,37v8H79.65V37h10.3ZM45.88,45.24V37h2.74a30.9,30.9,0,0,1,5.18.36,2.54,2.54,0,0,1,1.3,1.15A7.19,7.19,0,0,1,55.46,41a10.73,10.73,0,0,1-.29,2.59,2.12,2.12,0,0,1-1.08,1.15,3.93,3.93,0,0,1-1.3.43c-0.5,0-1.87.07-4.18,0.07H45.88ZM21.76,15.43A7.74,7.74,0,0,0,14,23.21v43.7a7.77,7.77,0,0,0,7.78,7.7H45.88V53.3h-9.5v6.55a1.47,1.47,0,0,1-1.44,1.37H27.59a1.08,1.08,0,0,1-1.08-1.15V30.41a1.71,1.71,0,0,1,1.66-1.51H45.88V15.43H21.76ZM45.88,37v8.28h-9.5V37h9.5Z" transform="translate(-9.23 -10.68)"/><path class="cls-2" d="M183,28.9h2.74c4.39,0,7.2.14,8.5,0.29,3.17,0.43,5.33,1.44,6.48,3.1s1.73,4.54,1.73,8.71S202,47.76,201,49.42a5.85,5.85,0,0,1-2.66,2.45,13.23,13.23,0,0,1-4.61,1.22c-1.44.14-4,.22-7.92,0.22H183V45.24h2.74c2.3,0,3.67-.07,4.18-0.07a3.93,3.93,0,0,0,1.3-.43,2.12,2.12,0,0,0,1.08-1.15,11.51,11.51,0,0,0,.22-2.59,7.51,7.51,0,0,0-.29-2.52,2.54,2.54,0,0,0-1.3-1.15,30.9,30.9,0,0,0-5.18-.36H183V28.9h0Zm24.84,0h7.49a1.2,1.2,0,0,1,1.3,1.3V43.73a35.68,35.68,0,0,0,.36,6.48,3.05,3.05,0,0,0,2.45,2.52,39.8,39.8,0,0,0,8.35.58,52.61,52.61,0,0,0,7.06-.29,4.45,4.45,0,0,0,2.81-1.22,3.12,3.12,0,0,0,.79-1.44,17.06,17.06,0,0,0,.36-3c0.07-1.44.07-2.66,0.07-3.6V30.12a1.18,1.18,0,0,1,1.3-1.22h7.06a1.27,1.27,0,0,1,1.51,1.22V43.73a81.33,81.33,0,0,1-.5,10.15,7.64,7.64,0,0,1-3.89,6,12.78,12.78,0,0,1-5.26,1.44,101,101,0,0,1-11.23.43c-3.89,0-6.84-.07-9-0.22a34.27,34.27,0,0,1-5.47-.79,7.41,7.41,0,0,1-6.12-6.26,33.24,33.24,0,0,1-.36-3.46c-0.07-1-.14-3.46-0.14-7.27V30.12a1.13,1.13,0,0,1,1.08-1.22h0Zm47.74,0h7.63a1.24,1.24,0,0,1,1.51,1.3V52.94h21.82a1.13,1.13,0,0,1,1.15,1.15V60a1.1,1.1,0,0,1-1.22,1.22h-31A1.09,1.09,0,0,1,254.46,60V30.12a1.07,1.07,0,0,1,1.15-1.22h0Zm36.72,21.6h6.91c1.3,0,1.37.72,1.51,1.44a2.44,2.44,0,0,0,.86,1.66,4.08,4.08,0,0,0,1.8.58c0.79,0,3.17.07,7.13,0.07,4.18,0,6.62,0,7.49-.07a5.05,5.05,0,0,0,2-.36c0.72-.29,1.08-1.08,1.08-2.45a2.25,2.25,0,0,0-.79-1.94,8.51,8.51,0,0,0-3.17-.5c-1.15,0-3.74-.07-7.7-0.29s-6.62-.29-7.85-0.29a28.09,28.09,0,0,1-5.47-.72,5.88,5.88,0,0,1-3-1.8c-1.22-1.37-1.8-3.74-1.8-7,0-3.6.72-6.19,2.09-7.7a8.19,8.19,0,0,1,4.82-2.23,123.33,123.33,0,0,1,13.39-.5,77.55,77.55,0,0,1,10,.43c3,0.43,5,1.22,6.12,2.45s1.66,3.31,1.66,6.26V38A1.06,1.06,0,0,1,328.41,39h-7.56a0.93,0.93,0,0,1-1-.94,2.07,2.07,0,0,0-.14-0.86,1.4,1.4,0,0,0-.72-0.86,5.94,5.94,0,0,0-2.23-.43c-1.08-.07-3.31-0.14-6.77-0.14-4.25,0-6.77.14-7.7,0.43a1.94,1.94,0,0,0-1.37,2.16,2,2,0,0,0,1.37,2.09c0.79,0.22,4.25.36,10.44,0.58,5.26,0.14,8.71.36,10.51,0.58a11.59,11.59,0,0,1,4.18,1.15,5.9,5.9,0,0,1,2.52,3,14.79,14.79,0,0,1,.72,5.33,15.05,15.05,0,0,1-1.22,6.84,5.22,5.22,0,0,1-2.59,2.38,12.94,12.94,0,0,1-4.61,1.15c-2.09.14-6.12,0.29-11.88,0.29a96.4,96.4,0,0,1-10.8-.43,13.49,13.49,0,0,1-5.18-1.3,5.56,5.56,0,0,1-2.52-2.81,13.2,13.2,0,0,1-.72-5.18V51.72A1.26,1.26,0,0,1,292.34,50.5ZM163.74,60.07V30.19a1.1,1.1,0,0,1,1.15-1.3H183V37h-9.43v8.28H183V53.3h-9.43v6.77a1.09,1.09,0,0,1-1.3,1.15H164.9A1,1,0,0,1,163.74,60.07Z" transform="translate(-9.23 -10.68)"/></svg>